<?xml version="1.0" encoding="utf-8"?>
<!-- Generator: Adobe Illustrator 25.0.0, SVG Export Plug-In . SVG Version: 6.00 Build 0)  -->
<svg version="1.1" id="Layer_3" xmlns="http://www.w3.org/2000/svg" xmlns:xlink="http://www.w3.org/1999/xlink" x="0px" y="0px"
	 viewBox="0 0 274.77 257.33" style="enable-background:new 0 0 274.77 257.33;" xml:space="preserve">
<style type="text/css">
	.st0{fill:#231F20;}
	.st1{fill:#FFFFFF;}
	.st2{font-family:'Montserrat-BoldItalic';}
	.st3{font-size:54.1183px;}
	.st4{font-size:22.2825px;}
</style>
<symbol  id="New_Symbol" viewBox="-330.73 -207 661.47 414">
	<rect id="XMLID_565_" x="-330.73" y="153" class="st0" width="661.47" height="54"/>
	<rect id="XMLID_566_" x="-330.73" y="63" class="st0" width="661.47" height="54"/>
	<rect id="XMLID_567_" x="-330.73" y="-27" class="st0" width="661.47" height="54"/>
	<rect id="XMLID_568_" x="-330.73" y="-117" class="st0" width="661.47" height="54"/>
	<rect id="XMLID_569_" x="-330.73" y="-207" class="st0" width="661.47" height="54"/>
</symbol>
<path id="XMLID_1124_" class="st1" d="M150.82,0.01c-23.72-0.34-44.99,10.16-59.2,26.86c12.05-11.15,32.47-20.3,57.17-19.54
	c37.31,1.15,67.71,31.02,68.01,68.34c0.31,37.44-29.98,67.87-67.37,67.8c-37.19-0.07-67.1-30.04-67.1-67.24
	c0-4.21,0.46-9,1.24-13.36l59.14,0.62c2.78,0.25,4.86,2.71,4.58,5.49c0,0.03-0.01,0.06-0.01,0.1c-0.25,2.6-2.42,4.6-5.03,4.6h-38.71
	l44.65,6.18c0.92,3.35,2.43,6.57,4.53,9.5l-5.28,5.28h-1.36l-22.76,16.89c-5.42,4.02-7.9,10.89-6.32,17.44
	c0.35,1.45,1.47,2.57,2.92,2.92c6.56,1.59,13.42-0.9,17.44-6.32l16.89-22.76v-1.36l5.28-5.28c11.63,8.38,27.95,7.34,38.42-3.13
	c11.63-11.63,11.63-30.48,0-42.1c-5.83-5.83-13.48-8.74-21.13-8.72l0,0h-21.75H91.56H48.84c-0.21,0.42,74.01,5.06,99.89,6.66
	c3.48,0.22,5.34,4.2,3.27,7c-0.02,0.03-0.05,0.07-0.07,0.1c-0.83,1.13-2.15,1.8-3.55,1.8h-28.71H84.9h-5.44h-3.73
	c-1.47,5.91-2.26,12.09-2.26,18.46c0,41.77,33.71,75.83,75.48,76.23c42.3,0.4,76.74-33.65,76.97-75.8
	C226.15,35.49,191.98,0.6,150.82,0.01z M176.83,49.68c12.3,0,22.27,9.97,22.27,22.27c0,12.3-9.97,22.27-22.27,22.27
	c-12.3,0-22.27-9.97-22.27-22.27C154.56,59.65,164.53,49.68,176.83,49.68z"/>
<text transform="matrix(1 0 0 1 0.1782 221.762)" class="st1 st2 st3">RECRU-IT</text>
<text transform="matrix(1 0 0 1 0.1782 251.3989)" class="st1 st2 st4">SIMPLE RECRUITMENT</text>
</svg>
